<svg width="26" height="26" viewBox="0 0 26 26" fill="none" xmlns="http://www.w3.org/2000/svg">
<rect x="1" y="1" width="24" height="24" rx="4" stroke="black" stroke-width="2"/>
<path d="M13 23C9.66667 23 6.72 21.2873 5 18.7183C5.04 16.0423 10.3333 14.5704 13 14.5704C15.6667 14.5704 20.96 16.0423 21 18.7183C20.1187 20.0356 18.928 21.1152 17.5329 21.8619C16.1378 22.6086 14.5811 22.9994 13 23ZM13 4C14.0609 4 15.0783 4.42291 15.8284 5.1757C16.5786 5.92848 17 6.94948 17 8.01408C17 9.07869 16.5786 10.0997 15.8284 10.8525C15.0783 11.6053 14.0609 12.0282 13 12.0282C11.9391 12.0282 10.9217 11.6053 10.1716 10.8525C9.42143 10.0997 9 9.07869 9 8.01408C9 6.94948 9.42143 5.92848 10.1716 5.1757C10.9217 4.42291 11.9391 4 13 4Z" fill="white"/>
<path d="M13 4C14.0609 4 15.0783 4.42291 15.8284 5.1757C16.5786 5.92848 17 6.94948 17 8.01408C17 9.07869 16.5786 10.0997 15.8284 10.8525C15.0783 11.6053 14.0609 12.0282 13 12.0282C11.9391 12.0282 10.9217 11.6053 10.1716 10.8525C9.42143 10.0997 9 9.07869 9 8.01408C9 6.94948 9.42143 5.92848 10.1716 5.1757C10.9217 4.42291 11.9391 4 13 4Z" fill="black"/>
<path d="M13 23C9.66667 23 6.72 21.2873 5 18.7183C5.04 16.0423 10.3333 14.5704 13 14.5704C15.6667 14.5704 20.96 16.0423 21 18.7183C20.1187 20.0356 18.928 21.1152 17.5329 21.8619C16.1378 22.6086 14.5811 22.9994 13 23Z" fill="black"/>
</svg>
