<svg width="1479" height="222" viewBox="0 0 1479 222" fill="none" xmlns="http://www.w3.org/2000/svg">
<g filter="url(#filter0_bd_182_1601)">
<path d="M1459 20H19V148.701L361 147V168.696C361 173.631 364.477 177 370 177H372C372 185.304 377 188 381 188H383C383 193.362 385 199 393 199H1086C1092 199 1095 193.362 1095 188H1097C1100 188 1106 185.304 1106 177H1108C1113.52 177 1117 173.631 1117 168.696V147H1459V20Z" fill="url(#paint0_radial_182_1601)" shape-rendering="crispEdges"/>
</g>
<path d="M19 136H363C367.971 136 372 139.88 372 144.667V179.333C372 184.12 376.029 188 381 188H1097C1102 188 1106 184.148 1106 179.333V144.667C1106 139.852 1110.03 136 1115 136C1157 136 1459 136.481 1459 136.481" stroke="#CA3667" stroke-width="2" stroke-linejoin="round"/>
<path d="M19 147L374 146.949C378.971 146.949 383 150.879 383 155.726V190C383 194.848 387.029 199 392 199H1086C1091 199 1095 194.877 1095 190V155.778C1095 150.901 1098.03 147 1103 147C1145 147 1459 147 1459 147M19 125H352C356.971 125 361 128.93 361 133.778V168.222C361 173.07 365.029 177 370 177H1108C1113 177 1117 173.099 1117 168.222V133.778C1117 128.901 1121.03 125 1126 125C1168 125 1459 125.488 1459 125.488" stroke="#18D9C5" stroke-width="2" stroke-linejoin="round"/>
<defs>
<filter id="filter0_bd_182_1601" x="-11" y="-10" width="1500" height="239" filterUnits="userSpaceOnUse" color-interpolation-filters="sRGB">
<feFlood flood-opacity="0" result="BackgroundImageFix"/>
<feGaussianBlur in="BackgroundImageFix" stdDeviation="15"/>
<feComposite in2="SourceAlpha" operator="in" result="effect1_backgroundBlur_182_1601"/>
<feColorMatrix in="SourceAlpha" type="matrix" values="0 0 0 0 0 0 0 0 0 0 0 0 0 0 0 0 0 0 127 0" result="hardAlpha"/>
<feOffset dx="3" dy="1"/>
<feGaussianBlur stdDeviation="11"/>
<feComposite in2="hardAlpha" operator="out"/>
<feColorMatrix type="matrix" values="0 0 0 0 0 0 0 0 0 0 0 0 0 0 0 0 0 0 0.25 0"/>
<feBlend mode="normal" in2="effect1_backgroundBlur_182_1601" result="effect2_dropShadow_182_1601"/>
<feBlend mode="normal" in="SourceGraphic" in2="effect2_dropShadow_182_1601" result="shape"/>
</filter>
<radialGradient id="paint0_radial_182_1601" cx="0" cy="0" r="1" gradientUnits="userSpaceOnUse" gradientTransform="translate(19 72.5) rotate(0.238731) scale(1440.01 254.185)">
<stop stop-opacity="0.01"/>
<stop offset="1" stop-opacity="0.3"/>
</radialGradient>
</defs>
</svg>
